<svg width="8" height="10" viewBox="0 0 8 10" fill="none" xmlns="http://www.w3.org/2000/svg">
<g clip-path="url(#clip0_236_3879)">
<path d="M3.34216 4.75721C3.34216 5.01115 3.42666 5.25469 3.57707 5.43426C3.72748 5.61382 3.93149 5.7147 4.1442 5.7147C4.35692 5.7147 4.56092 5.61382 4.71133 5.43426C4.86175 5.25469 4.94625 5.01115 4.94625 4.75721C4.94625 4.50327 4.86175 4.25973 4.71133 4.08017C4.56092 3.9006 4.35692 3.79973 4.1442 3.79973C3.93149 3.79973 3.72748 3.9006 3.57707 4.08017C3.42666 4.25973 3.34216 4.50327 3.34216 4.75721ZM7.25356 4.53665C6.57469 2.82942 5.5485 1.97025 4.17285 1.97025C2.79648 1.97025 1.77101 2.82942 1.09213 4.5375C1.0649 4.60634 1.05078 4.68152 1.05078 4.75764C1.05078 4.83376 1.0649 4.90894 1.09213 4.97778C1.77101 6.68501 2.7972 7.54418 4.17285 7.54418C5.54921 7.54418 6.57469 6.68501 7.25356 4.97692C7.3087 4.83843 7.3087 4.67771 7.25356 4.53665ZM4.1442 6.26183C3.44814 6.26183 2.88385 5.58817 2.88385 4.75721C2.88385 3.92625 3.44814 3.25259 4.1442 3.25259C4.84026 3.25259 5.40456 3.92625 5.40456 4.75721C5.40456 5.58817 4.84026 6.26183 4.1442 6.26183Z" fill="#282B30" fill-opacity="0.6"/>
</g>
<defs>
<clipPath id="clip0_236_3879">
<rect width="7.33297" height="8.75415" fill="white" transform="translate(0.507812 0.380157)"/>
</clipPath>
</defs>
</svg>
