<svg width="9" height="10" viewBox="0 0 9 10" fill="none" xmlns="http://www.w3.org/2000/svg">
<path d="M4.37181 1.10968C2.68706 1.10968 1.31641 2.74598 1.31641 4.75724C1.31641 6.76851 2.68706 8.40481 4.37181 8.40481C6.05656 8.40481 7.42722 6.76851 7.42722 4.75724C7.42722 2.74598 6.05656 1.10968 4.37181 1.10968ZM4.37181 7.6753C3.02407 7.6753 1.92749 6.36618 1.92749 4.75724C1.92749 3.1483 3.02407 1.83919 4.37181 1.83919C5.71955 1.83919 6.81614 3.1483 6.81614 4.75724C6.81614 6.36618 5.71955 7.6753 4.37181 7.6753Z" fill="#282B30" fill-opacity="0.6"/>
<path d="M4.67944 2.9335H4.06836V4.90829L5.0745 6.10944L5.50654 5.59367L4.67944 4.60627V2.9335Z" fill="#282B30" fill-opacity="0.6"/>
</svg>
