<svg width="8" height="10" viewBox="0 0 8 10" fill="none" xmlns="http://www.w3.org/2000/svg">
<g clip-path="url(#clip0_236_3867)">
<path d="M6.04185 1.83919H5.43076V1.47444C5.43076 1.3777 5.39857 1.28492 5.34127 1.21651C5.28397 1.14811 5.20626 1.10968 5.12522 1.10968C5.04419 1.10968 4.96647 1.14811 4.90917 1.21651C4.85187 1.28492 4.81968 1.3777 4.81968 1.47444V1.83919H2.98644V1.47444C2.98644 1.3777 2.95425 1.28492 2.89695 1.21651C2.83965 1.14811 2.76193 1.10968 2.6809 1.10968C2.59987 1.10968 2.52215 1.14811 2.46485 1.21651C2.40755 1.28492 2.37536 1.3777 2.37536 1.47444V1.83919H1.76428C1.52117 1.83919 1.28803 1.95448 1.11613 2.1597C0.944229 2.36491 0.847656 2.64324 0.847656 2.93346V7.31054C0.847656 7.60076 0.944229 7.87909 1.11613 8.0843C1.28803 8.28952 1.52117 8.40481 1.76428 8.40481H6.04185C6.28495 8.40481 6.5181 8.28952 6.69 8.0843C6.8619 7.87909 6.95847 7.60076 6.95847 7.31054V2.93346C6.95847 2.64324 6.8619 2.36491 6.69 2.1597C6.5181 1.95448 6.28495 1.83919 6.04185 1.83919ZM6.34739 7.31054C6.34739 7.40728 6.3152 7.50006 6.2579 7.56846C6.2006 7.63687 6.12288 7.6753 6.04185 7.6753H1.76428C1.68324 7.6753 1.60553 7.63687 1.54823 7.56846C1.49093 7.50006 1.45874 7.40728 1.45874 7.31054V4.75724H6.34739V7.31054ZM6.34739 4.02773H1.45874V2.93346C1.45874 2.83672 1.49093 2.74395 1.54823 2.67554C1.60553 2.60714 1.68324 2.56871 1.76428 2.56871H2.37536V2.93346C2.37536 3.0302 2.40755 3.12298 2.46485 3.19138C2.52215 3.25979 2.59987 3.29822 2.6809 3.29822C2.76193 3.29822 2.83965 3.25979 2.89695 3.19138C2.95425 3.12298 2.98644 3.0302 2.98644 2.93346V2.56871H4.81968V2.93346C4.81968 3.0302 4.85187 3.12298 4.90917 3.19138C4.96647 3.25979 5.04419 3.29822 5.12522 3.29822C5.20626 3.29822 5.28397 3.25979 5.34127 3.19138C5.39857 3.12298 5.43076 3.0302 5.43076 2.93346V2.56871H6.04185C6.12288 2.56871 6.2006 2.60714 6.2579 2.67554C6.3152 2.74395 6.34739 2.83672 6.34739 2.93346V4.02773Z" fill="#282B30" fill-opacity="0.6"/>
</g>
<defs>
<clipPath id="clip0_236_3867">
<rect width="7.33297" height="8.75415" fill="white" transform="translate(0.236328 0.380157)"/>
</clipPath>
</defs>
</svg>
